$MeshFormat
2.2 0 8
$EndMeshFormat
$Nodes
513
1 0 0 0
2 1 0 0
3 1 1 0
4 0 1 0
5 0.04999999999989967 0 0
6 0.09999999999981468 0 0
7 0.1499999999997036 0 0
8 0.1999999999995579 0 0
9 0.2499999999994122 0 0
10 0.2999999999992664 0 0
11 0.3499999999991207 0 0
12 0.399999999998975 0 0
13 0.4499999999988292 0 0
14 0.4999999999986943 0 0
15 0.5499999999988151 0 0
16 0.5999999999989468 0 0
17 0.6499999999990784 0 0
18 0.69999999999921 0 0
19 0.7499999999993417 0 0
20 0.7999999999994734 0 0
21 0.8499999999996051 0 0
22 0.8999999999997368 0 0
23 0.9499999999998684 0 0
24 1 0.04999999999989967 0
25 1 0.09999999999981468 0
26 1 0.1499999999997036 0
27 1 0.1999999999995579 0
28 1 0.2499999999994122 0
29 1 0.2999999999992664 0
30 1 0.3499999999991207 0
31 1 0.399999999998975 0
32 1 0.4499999999988292 0
33 1 0.4999999999986943 0
34 1 0.5499999999988151 0
35 1 0.5999999999989468 0
36 1 0.6499999999990784 0
37 1 0.69999999999921 0
38 1 0.7499999999993417 0
39 1 0.7999999999994734 0
40 1 0.8499999999996051 0
41 1 0.8999999999997368 0
42 1 0.9499999999998684 0
43 0.9499999999997918 1 0
44 0.8999999999995836 1 0
45 0.8499999999996529 1 0
46 0.7999999999999998 1 0
47 0.7500000000003466 1 0
48 0.7000000000006934 1 0
49 0.6500000000010401 1 0
50 0.6000000000013869 1 0
51 0.5500000000017335 1 0
52 0.5000000000020587 1 0
53 0.4500000000018723 1 0
54 0.4000000000016644 1 0
55 0.3500000000014564 1 0
56 0.3000000000012483 1 0
57 0.2500000000010403 1 0
58 0.2000000000008322 1 0
59 0.1500000000006241 1 0
60 0.100000000000416 1 0
61 0.05000000000020799 1 0
62 0 0.9499999999997918 0
63 0 0.8999999999995836 0
64 0 0.8499999999996529 0
65 0 0.7999999999999998 0
66 0 0.7500000000003466 0
67 0 0.7000000000006934 0
68 0 0.6500000000010401 0
69 0 0.6000000000013869 0
70 0 0.5500000000017335 0
71 0 0.5000000000020587 0
72 0 0.4500000000018723 0
73 0 0.4000000000016644 0
74 0 0.3500000000014564 0
75 0 0.3000000000012483 0
76 0 0.2500000000010403 0
77 0 0.2000000000008322 0
78 0 0.1500000000006241 0
79 0 0.100000000000416 0
80 0 0.05000000000020799 0
81 0.4750000000019655 0.9566987298108381 0
82 0.05046656420038709 0.4771882790972399 0
83 0.5249999999987547 0.04330127018921581 0
84 0.9660075803079151 0.5234502641686714 0
85 0.0433012701889216 0.6750000000008667 0
86 0.6750000000009553 0.956698729811321 0
87 0.3249999999991935 0.04330127018909571 0
88 0.9561292873109415 0.3255151029577577 0
89 0.3250000000020248 0.9566987298106971 0
90 0.04225535043594819 0.3250000000014422 0
91 0.9628218759964475 0.6742734396871652 0
92 0.6749999999991443 0.0433012701893359 0
93 0.8249999999998365 0.95669872981118 0
94 0.04442715103599509 0.8254600999506849 0
95 0.04188217555022795 0.1780347135139138 0
96 0.8270021786645306 0.04191013759588032 0
97 0.1750000000013638 0.9566987298107144 0
98 0.9516575057680479 0.8297603025592368 0
99 0.9555728489640976 0.1745399000489724 0
100 0.1749999999996308 0.04330127018909573 0
101 0.4271997259758864 0.04464499979709913 0
102 0.9551316715113672 0.4225429761625026 0
103 0.03957139431641591 0.5760950406926106 0
104 0.5750000000015448 0.9566987298110613 0
105 0.9230662432699767 0.9578151847792151 0
106 0.04528486237225463 0.9204087190468542 0
107 0.04240819999735912 0.07491856826831378 0
108 0.9230662432700291 0.04218481522084831 0
109 0.4250000000018942 0.9566987298108228 0
110 0.4500000000020634 0.913397459621806 0
111 0.4000000000022988 0.9133974596216499 0
112 0.4250000000023256 0.8700961894327535 0
113 0.475000000002088 0.8700961894329198 0
114 0.4500000000023217 0.8267949192438686 0
115 0.5000000000020679 0.8267949192440432 0
116 0.4750000000023085 0.7834936490549762 0
117 0.5250000000020127 0.7834936490551394 0
118 0.5000000000022916 0.7401923788660708 0
119 0.450000000002568 0.7401923788659153 0
120 0.475000000002559 0.6968911086770037 0
121 0.5250000000022977 0.6968911086771532 0
122 0.5000000000025582 0.6535898384880767 0
123 0.5500000000023066 0.6535898384882276 0
124 0.5250000000025611 0.6102885682991425 0
125 0.4750000000028121 0.6102885682989969 0
126 0.5000000000028103 0.5669872981100551 0
127 0.5500000000025635 0.5669872981102069 0
128 0.5250000000028063 0.5236860279211123 0
129 0.4750000000030412 0.5236860279209665 0
130 0.5000000000030578 0.480384757732009 0
131 0.4500000000032693 0.4803847577318693 0
132 0.550000000002806 0.4803847577321572 0
133 0.4750000000032915 0.4370834875428958 0
134 0.425000000003498 0.4370834875427546 0
135 0.4000000000034732 0.4803847577317353 0
136 0.3750000000036984 0.4370834875426082 0
137 0.4500000000035234 0.3937822173537694 0
138 0.3500000000036674 0.4803847577316009 0
139 0.3250000000038876 0.4370834875424599 0
140 0.3000000000038652 0.480384757731458 0
141 0.2750000000040685 0.4370834875423303 0
142 0.300000000004101 0.3937822173533133 0
143 0.3250000000036455 0.5236860279205671 0
144 0.2750000000038643 0.5236860279204367 0
145 0.3000000000036323 0.5669872981095267 0
146 0.2500000000038759 0.5669872981093951 0
147 0.2750000000036351 0.6102885682984646 0
148 0.2500000000042286 0.3937822173531836 0
149 0.2750000000042906 0.3504809471641429 0
150 0.5750000000020488 0.6968911086773117 0
151 0.6000000000020613 0.653589838488381 0
152 0.6250000000018088 0.6968911086774712 0
153 0.6500000000018269 0.6535898384885305 0
154 0.6750000000015834 0.6968911086776691 0
155 0.7000000000016109 0.6535898384886839 0
156 0.7250000000013779 0.6968911086778475 0
157 0.7500000000014185 0.6535898384888349 0
158 0.7250000000016408 0.6102885682996964 0
159 0.5000000000033286 0.3937822173539184 0
160 0.4750000000035547 0.350480947164775 0
161 0.5250000000033936 0.3504809471649344 0
162 0.5000000000035992 0.3071796769757732 0
163 0.5500000000034593 0.3071796769759344 0
164 0.5250000000036533 0.2638784067867614 0
165 0.4750000000038049 0.2638784067866119 0
166 0.5750000000035181 0.263878406786909 0
167 0.600000000003332 0.3071796769761008 0
168 0.6250000000033975 0.2638784067870624 0
169 0.6500000000032086 0.3071796769762642 0
170 0.6750000000032939 0.2638784067872187 0
171 0.7000000000031037 0.3071796769764217 0
172 0.7250000000031906 0.263878406787371 0
173 0.7500000000029986 0.307179676976577 0
174 0.7250000000029151 0.3504809471656201 0
175 0.4000000000026053 0.8267949192437392 0
176 0.6500000000015699 0.7401923788666857 0
177 0.7750000000011897 0.6968911086779893 0
178 0.7500000000011343 0.7401923788669891 0
179 0.7750000000030906 0.2638784067875281 0
180 0.7500000000032734 0.2205771365983041 0
181 0.6000000000035624 0.2208123108001128 0
182 0.7750000000014609 0.6102885682998341 0
183 0.7500000000016738 0.5669872981106898 0
184 0.7750000000027992 0.3504809471657758 0
185 0.2250000000038931 0.6102885682983381 0
186 0.2500000000036537 0.6535898384873984 0
187 0.2250000000040625 0.5236860279203182 0
188 0.2250000000044203 0.3504809471640115 0
189 0.250000000004476 0.3071796769749607 0
190 0.3000000000043472 0.3071796769751069 0
191 0.2750000000045376 0.2638784067859157 0
192 0.2250000000046511 0.2638784067857761 0
193 0.2500000000047142 0.2205771365967009 0
194 0.3000000000045753 0.2205771365968908 0
195 0.5000000000038527 0.2205771365975955 0
196 0.8000000000009752 0.7401923788671497 0
197 0.7750000000009251 0.7834936490561658 0
198 0.20000000000436 0.3937822173530579 0
199 0.4250000000028267 0.696891108676852 0
200 0.7500000000027268 0.3937822173547952 0
201 0.7000000000027651 0.3937822173546293 0
202 0.2000000000048014 0.2205771365965681 0
203 0.7980916764234673 0.221678907730911 0
204 0.8000000000015081 0.5669872981108293 0
205 0.2000000000039184 0.6535898384872669 0
206 0.2250000000036633 0.6968911086763369 0
207 0.8000000000025325 0.3937822173549278 0
208 0.2750000000034211 0.6968911086764766 0
209 0.2500000000034361 0.7401923788654459 0
210 0.2000000000036376 0.7401923788652938 0
211 0.2250000000034266 0.7834936490544352 0
212 0.7000000000018507 0.5669872981105513 0
213 0.450000000004001 0.2205771365974501 0
214 0.5500000000018016 0.8267949192442555 0
215 0.2250000000048786 0.1772758664074737 0
216 0.7746819460734137 0.1774594949312925 0
217 0.7249469910150982 0.1773064711627373 0
218 0.4730330593134731 0.1784114801456061 0
219 0.4246721765557654 0.1774651353644807 0
220 0.8250000000012967 0.6102885682999857 0
221 0.1757200355506634 0.2642941195019133 0
222 0.8239383236133784 0.2644913659370332 0
223 0.1750000000049419 0.1772758664073419 0
224 0.8183916375006355 0.174923025484428 0
225 0.1746783039649812 0.7833079177599199 0
226 0.8243590698927326 0.7831236078859105 0
227 0.1750000000041648 0.6102885682982193 0
228 0.1999463839969418 0.826763964027718 0
229 0.2499910640021847 0.8267897600409819 0
230 0.3500000000034659 0.5669872981096504 0
231 0.3000000000032365 0.7401923788655804 0
232 0.4250000000037513 0.3504809471646322 0
233 0.7250000000018835 0.5236860279215998 0
234 0.675000000002056 0.5236860279214075 0
235 0.7998931783158607 0.826733245716825 0
236 0.7499821963867448 0.8267846403237442 0
237 0.7499381561838179 0.1340103017659039 0
238 0.1500000000038142 0.7401923788651238 0
239 0.8500000000008527 0.7401923788672914 0
240 0.8500000000013543 0.5669872981109704 0
241 0.8250000000015509 0.5236860279218825 0
242 0.1496157519564203 0.826573073530515 0
243 0.8492344445931477 0.8282580938315444 0
244 0.2249895746685948 0.8700901703629325 0
245 0.3250000000032419 0.6968911086766006 0
246 0.6250000000031541 0.350480947165312 0
247 0.425000000003982 0.263878406786468 0
248 0.4000000000028131 0.7401923788657749 0
249 0.8250000000026605 0.3504809471659324 0
250 0.8500000000022833 0.3937822173550649 0
251 0.6250000000020587 0.6102885682994279 0
252 0.5500000000031726 0.3937822173540978 0
253 0.1499554419106744 0.6536155641144235 0
254 0.5250000000039053 0.1772758664085757 0
255 0.175000000004553 0.3504809471638847 0
256 0.1500000000045173 0.3937822173529258 0
257 0.1750000000043071 0.4370834875420691 0
258 0.7750000000022639 0.4370834875438919 0
259 0.2749967731138163 0.8700943263872798 0
260 0.2999979728547133 0.8267937488690201 0
261 0.7749792291171917 0.8700841973591414 0
262 0.7249935709179869 0.8700924776013137 0
263 0.699995961218273 0.8267925874526434 0
264 0.6749982553568712 0.870095182162983 0
265 0.6499990360968344 0.8267943627342917 0
266 0.6249995485765273 0.8700959288033416 0
267 0.6999808578688828 0.1342208221386522 0
268 0.8750000000011586 0.6102885683001459 0
269 0.4415169912656461 0.1355529989982668 0
270 0.4000000000043886 0.1339745962191165 0
271 0.200000000005027 0.1342097704206082 0
272 0.1500000000050658 0.1342489661208476 0
273 0.2500000000049339 0.1340137919187686 0
274 0.1262679050971015 0.4378155128884596 0
275 0.1502113175197729 0.4805067619554736 0
276 0.0929721282719302 0.3962220452902289 0
277 0.1261740891387855 0.6096107076203396 0
278 0.1501956815267361 0.5668743213295171 0
279 0.575000000001747 0.7834936490552969 0
280 0.8500000000010854 0.6535898384891909 0
281 0.6749879748163276 0.1773220048543272 0
282 0.6543590194275944 0.1306099971378536 0
283 0.3749453627629684 0.1773074112341555 0
284 0.3499908937977255 0.1342150278921699 0
285 0.7000000000021809 0.4803847577325818 0
286 0.6500000000022814 0.4803847577324307 0
287 0.6250000000022553 0.523686027921308 0
288 0.2499977246321407 0.9133961459358156 0
289 0.3249991243300195 0.8700956838625175 0
290 0.7499954666727928 0.9133948423049204 0
291 0.8737366029890414 0.3506176189935664 0
292 0.1219165141787183 0.1799590155491105 0
293 0.8734906702583454 0.5228146159885032 0
294 0.8497484450444533 0.4802395224107534 0
295 0.1002899376795806 0.1316757504279994 0
296 0.8980457393503875 0.4791784703146161 0
297 0.225000000005128 0.09067332602916368 0
298 0.72500000000368 0.09067332603065523 0
299 0.3676415773425299 0.09054386683861536 0
300 0.1257003525943285 0.08666514756862381 0
301 0.7740489233390661 0.09263022172104327 0
302 0.2750000000050302 0.09067332602931524 0
303 0.9068046502721685 0.3957859913825046 0
304 0.09288243462321182 0.6521465566749662 0
305 0.8966681168315206 0.6527831203157299 0
306 0.9216134251527461 0.612415564896481 0
307 0.1060419291082951 0.5625331428900888 0
308 0.1031015326402265 0.4798549629672008 0
309 0.1999978832180937 0.9133962374956366 0
310 0.3750000000020673 0.9566987298107303 0
311 0.04489123220368085 0.4233143273356466 0
312 0.04330127018948145 0.3750000000019139 0
313 0.6749991662201145 0.7834931676720513 0
314 0.5250000000017783 0.9566987298109204 0
315 0.5500000000017051 0.9133974596220829 0
316 0.04047177826541108 0.5286859069433754 0
317 0.200035219590112 0.4804050917686167 0
318 0.5749999999988258 0.0433012701892318 0
319 0.5499999999987379 0.08636736617614343 0
320 0.5999999999986695 0.08660254037847133 0
321 0.5676174914301867 0.130019363752937 0
322 0.5021997259757514 0.08790707428594882 0
323 0.5999997641133114 0.8267947830543438 0
324 0.375000000003047 0.6968911086767205 0
325 0.4000000000030752 0.6535898384877832 0
326 0.3500000000032738 0.6535898384876488 0
327 0.6230330593091171 0.04216565645256035 0
328 0.9503602260223942 0.4764435580840985 0
329 0.4757332419911173 0.04350747323949222 0
330 0.3500000000030226 0.7401923788656739 0
331 0.04312695023043699 0.2750000000011788 0
332 0.09380458231327748 0.3034333296038577 0
333 0.08472190821984957 0.2496529261264079 0
334 0.6249998764851525 0.7834935777434244 0
335 0.04944316498946611 0.1278288895828558 0
336 0.874677707211419 0.9568848056389353 0
337 0.8996239917466857 0.9136145480879048 0
338 0.9539420065119444 0.9185604831314513 0
339 0.9244549758285064 0.8742095752828073 0
340 0.8498836164927936 0.9134646536714577 0
341 0.9587555512832956 0.7248789066139179 0
342 0.9562013293823598 0.7757732015284438 0
343 0.9184821428245897 0.7950065669211505 0
344 0.9088491400056742 0.7463281188408418 0
345 0.125408650881289 0.9569346645065924 0
346 0.1500677556841993 0.9134365783831353 0
347 0.09970219570384353 0.9148477797978299 0
348 0.1248976172248242 0.8703074549698326 0
349 0.07473874707061097 0.8715535509100993 0
350 0.09829497231041108 0.8264818852486295 0
351 0.07326003256926046 0.7789198390761151 0
352 0.1230698237721369 0.7823792612879544 0
353 0.09878574235550833 0.7376392996117214 0
354 0.1245411409141554 0.6965072319810766 0
355 0.8749999999996549 0.04330127018932779 0
356 0.8996777072114198 0.0864164645505139 0
357 0.9539496801497707 0.08144394724537365 0
358 0.9249999999997272 0.1299038105678375 0
359 0.8749999999997305 0.1299038105678337 0
360 0.9035166642520106 0.1726435290363312 0
361 0.9269773361847912 0.2209945155569595 0
362 0.8828522130646403 0.2197185135429037 0
363 0.9039360857676514 0.2598888995996708 0
364 0.0428741239190968 0.2254567109946705 0
365 0.5000000000018968 0.913397459621931 0
366 0.2750000000047406 0.1772823990243703 0
367 0.3750000000033044 0.6102885682987107 0
368 0.6750000000029986 0.3504809471654688 0
369 0.6500000000027919 0.3937822173544777 0
370 0.6000000000029506 0.3937822173542821 0
371 0.8511152484141771 0.0859323027555739 0
372 0.3750000000034707 0.5236860279207 0
373 0.4250000000032721 0.5236860279208292 0
374 0.2250058699351918 0.4370868765484338 0
375 0.6500000000020589 0.5669872981104448 0
376 0.2500068482568607 0.4803887115719323 0
377 0.3250000000041389 0.3504809471642878 0
378 0.3500000000041915 0.3071796769752759 0
379 0.3250000000043711 0.2638784067860994 0
380 0.6999998610378171 0.7401922986362148 0
381 0.3250000000034324 0.6102885682985932 0
382 0.3750000000028333 0.7834936490547127 0
383 0.1250000000046856 0.3504809471637541 0
384 0.2000326135911801 0.5669684686460073 0
385 0.9566987298109043 0.3749999999990479 0
386 0.3249996621449996 0.7834934539922138 0
387 0.9503087453251761 0.2699827390316598 0
388 0.04694262906676906 0.730731088947708 0
389 0.04297403200547421 0.6265728793291658 0
390 0.7998230539379452 0.3072818368349619 0
391 0.7249961974775014 0.783491453667968 0
392 0.4500000000037803 0.3071796769756312 0
393 0.4500000000030567 0.5669872981099173 0
394 0.5999999794157252 0.740192366981069 0
395 0.6250000000012257 0.956698729811208 0
396 0.7750000000017121 0.5236860279217855 0
397 0.3500000000039227 0.3937822173534563 0
398 0.5750000000023077 0.6102885682992949 0
399 0.4500000000028174 0.6535898384879287 0
400 0.399936256555882 0.2206139388943269 0
401 0.4250000000025749 0.7834936490548312 0
402 0.5499999965710205 0.74019237688534 0
403 0.300000000003443 0.6535898384875303 0
404 0.8473552782120574 0.3086078160182973 0
405 0.1281010732098168 0.521985462230611 0
406 0.5250000000030891 0.4370834875430482 0
407 0.5500000000037037 0.2208515065003595 0
408 0.200120005928916 0.3072489624275456 0
409 0.1749160971399772 0.6968314168315868 0
410 0.6750000000018411 0.6102885682995557 0
411 0.2749981165019995 0.7834925616146129 0
412 0.1755959842402801 0.5234043556417572 0
413 0.5750000000032437 0.3504809471651101 0
414 0.6999891609741102 0.2205899271313311 0
415 0.4250000000030733 0.6102885682988605 0
416 0.8000000000012428 0.653589838488998 0
417 0.8989072111903966 0.5674595613571821 0
418 0.400000000003723 0.3937822173536139 0
419 0.7943478011792943 0.1302763156924941 0
420 0.5750000000028229 0.4370834875432202 0
421 0.1526136415546507 0.222317847259781 0
422 0.349999459889641 0.8267946074091388 0
423 0.4000000000032738 0.566987298109778 0
424 0.3750000000039445 0.350480947164462 0
425 0.6499961893007071 0.2206261537947978 0
426 0.5250000000018636 0.8700961894330919 0
427 0.1749191611248457 0.8700945797949617 0
428 0.4000000000039777 0.3071796769754792 0
429 0.6000000000022948 0.5669872981103287 0
430 0.6278883519275014 0.1751709064053904 0
431 0.725000000002551 0.4370834875437427 0
432 0.8250000000010307 0.6968911086781542 0
433 0.1500000000047325 0.3071796769747273 0
434 0.5750000000025338 0.5236860279212467 0
435 0.3749997640383259 0.8700960531985018 0
436 0.374989376096132 0.263884540502461 0
437 0.2999984823036835 0.1342574637526623 0
438 0.8750220831852373 0.698297427531736 0
439 0.3499921644481561 0.2205816604576105 0
440 0.324996828725888 0.1773004178322667 0
441 0.60000000000252 0.4803847577323057 0
442 0.5999999247639087 0.9133974161838931 0
443 0.5749998729098529 0.8700961160568347 0
444 0.6250000000026112 0.4370834875433869 0
445 0.7500000000019551 0.4803847577328481 0
446 0.6499996214501191 0.9133972410659267 0
447 0.6750000000025302 0.4370834875435415 0
448 0.6999978190665408 0.9133962004596708 0
449 0.7999580741756567 0.4803605518458483 0
450 0.8249510865381373 0.4370552473424492 0
451 0.8750000000016355 0.4370834875442089 0
452 0.7249988809569168 0.9566980837312649 0
453 0.3499998147296154 0.9133973526542283 0
454 0.7749990579382585 0.9566981859117299 0
455 0.2999989061349257 0.9133968280769325 0
456 0.7999762283700568 0.9134061330820591 0
457 0.2749994384623164 0.9566984056056734 0
458 0.2249997850877559 0.9566986057296685 0
459 0.8248277828147907 0.8703404188491353 0
460 0.8746708019124424 0.8730188697012738 0
461 0.9556214107062668 0.5727643286166932 0
462 0.7745561437936206 0.043881178355571 0
463 0.7249768921170719 0.04024531919157997 0
464 0.4557198091579708 0.08980326450140118 0
465 0.5249999999987419 0.128492765353972 0
466 0.6759130692009392 0.09303045710589807 0
467 0.5789872346893929 0.1757079288075845 0
468 0.378933292758839 0.04482305776418653 0
469 0.3235261906896325 0.09859819094037169 0
470 0.2749999999993393 0.04189022497512714 0
471 0.2249999999997788 0.04014166689081812 0
472 0.1750364615099247 0.09357732335232757 0
473 0.1256269153379399 0.03436774261860332 0
474 0.8999915048114224 0.3066980066328152 0
475 0.07653366928792334 0.9589360754928065 0
476 0.07949372566847451 0.04535149196019569 0
477 0.08079282901695585 0.2040094380060912 0
478 0.8731950895225808 0.7849718954547216 0
479 0.1286849721219508 0.2632857858674796 0
480 0.922918371002637 0.690366941852774 0
481 0.07971248213310084 0.3500194745806207 0
482 0.9186721550388954 0.3507233439931383 0
483 0.08079696066783607 0.6985184879786166 0
484 0.07946707618584178 0.0932879695615977 0
485 0.07939676863472066 0.5962221487921084 0
486 0.9652238251830861 0.6249999999990128 0
487 0.08353987248266526 0.4428790255157551 0
488 0.9170684574315905 0.4422068966975861 0
489 0.03289015209577214 0.8734844739813751 0
490 0.9662535686376527 0.8747479960174755 0
491 0.9666099939270881 0.1255668293348769 0
492 0.08405597845952209 0.51845755632113 0
493 0.9159440215429209 0.5184575563213556 0
494 0.03292596253440492 0.7770222055949709 0
495 0.9673718682343961 0.224999999999485 0
496 0.899639688342863 0.8363113500470758 0
497 0.8644641162443862 0.268768438329319 0
498 0.8393505360899767 0.2251366649393222 0
499 0.9633974596214028 0.9633974596214232 0
500 0.03660254037856588 0.03660254037864849 0
501 0.03660254037858459 0.9633974596214154 0
502 0.9633974596214202 0.03660254037851772 0
503 0.6381983558600389 0.07978885795832312 0
504 0.4881983558606345 0.1407882786424706 0
505 0.412224696496577 0.09206090528648275 0
506 0.612326631927983 0.1254031448381036 0
507 0.8601137494846094 0.1719452377114084 0
508 0.8360694560566997 0.1259305705029955 0
509 0.8120130719894395 0.07966679003145845 0
510 0.07963716592537345 0.1655249994318271 0
511 0.113745973018425 0.223845002561774 0
512 0.9346055322440765 0.6483585846695897 0
513 0.06933409850426978 0.5534481336997569 0
$EndNodes
$Elements
1024
1 1 2 2 1 1 5
2 1 2 2 1 5 6
3 1 2 2 1 6 7
4 1 2 2 1 7 8
5 1 2 2 1 8 9
6 1 2 2 1 9 10
7 1 2 2 1 10 11
8 1 2 2 1 11 12
9 1 2 2 1 12 13
10 1 2 2 1 13 14
11 1 2 2 1 14 15
12 1 2 2 1 15 16
13 1 2 2 1 16 17
14 1 2 2 1 17 18
15 1 2 2 1 18 19
16 1 2 2 1 19 20
17 1 2 2 1 20 21
18 1 2 2 1 21 22
19 1 2 2 1 22 23
20 1 2 2 1 23 2
21 1 2 2 2 2 24
22 1 2 2 2 24 25
23 1 2 2 2 25 26
24 1 2 2 2 26 27
25 1 2 2 2 27 28
26 1 2 2 2 28 29
27 1 2 2 2 29 30
28 1 2 2 2 30 31
29 1 2 2 2 31 32
30 1 2 2 2 32 33
31 1 2 2 2 33 34
32 1 2 2 2 34 35
33 1 2 2 2 35 36
34 1 2 2 2 36 37
35 1 2 2 2 37 38
36 1 2 2 2 38 39
37 1 2 2 2 39 40
38 1 2 2 2 40 41
39 1 2 2 2 41 42
40 1 2 2 2 42 3
41 1 2 2 3 3 43
42 1 2 2 3 43 44
43 1 2 2 3 44 45
44 1 2 2 3 45 46
45 1 2 2 3 46 47
46 1 2 2 3 47 48
47 1 2 2 3 48 49
48 1 2 2 3 49 50
49 1 2 2 3 50 51
50 1 2 2 3 51 52
51 1 2 2 3 52 53
52 1 2 2 3 53 54
53 1 2 2 3 54 55
54 1 2 2 3 55 56
55 1 2 2 3 56 57
56 1 2 2 3 57 58
57 1 2 2 3 58 59
58 1 2 2 3 59 60
59 1 2 2 3 60 61
60 1 2 2 3 61 4
61 1 2 2 4 4 62
62 1 2 2 4 62 63
63 1 2 2 4 63 64
64 1 2 2 4 64 65
65 1 2 2 4 65 66
66 1 2 2 4 66 67
67 1 2 2 4 67 68
68 1 2 2 4 68 69
69 1 2 2 4 69 70
70 1 2 2 4 70 71
71 1 2 2 4 71 72
72 1 2 2 4 72 73
73 1 2 2 4 73 74
74 1 2 2 4 74 75
75 1 2 2 4 75 76
76 1 2 2 4 76 77
77 1 2 2 4 77 78
78 1 2 2 4 78 79
79 1 2 2 4 79 80
80 1 2 2 4 80 1
81 2 2 1 1 461 417 493
82 2 2 1 1 387 88 474
83 2 2 1 1 344 239 438
84 2 2 1 1 84 461 493
85 2 2 1 1 301 298 462
86 2 2 1 1 462 298 463
87 2 2 1 1 302 297 470
88 2 2 1 1 470 297 471
89 2 2 1 1 383 332 433
90 2 2 1 1 299 87 468
91 2 2 1 1 87 299 469
92 2 2 1 1 92 298 466
93 2 2 1 1 297 100 471
94 2 2 1 1 298 92 463
95 2 2 1 1 100 297 472
96 2 2 1 1 321 254 465
97 2 2 1 1 254 321 467
98 2 2 1 1 302 87 469
99 2 2 1 1 87 302 470
100 2 2 1 1 300 100 472
101 2 2 1 1 100 300 473
102 2 2 1 1 363 387 474
103 2 2 1 1 430 467 506
104 2 2 1 1 464 322 504
105 2 2 1 1 468 101 505
106 2 2 1 1 467 321 506
107 2 2 1 1 299 468 505
108 2 2 1 1 269 464 504
109 2 2 1 1 276 311 312
110 2 2 1 1 102 303 385
111 2 2 1 1 476 300 484
112 2 2 1 1 473 300 476
113 2 2 1 1 304 85 389
114 2 2 1 1 363 361 387
115 2 2 1 1 353 351 388
116 2 2 1 1 347 106 349
117 2 2 1 1 344 438 480
118 2 2 1 1 362 498 507
119 2 2 1 1 498 224 507
120 2 2 1 1 243 478 496
121 2 2 1 1 433 332 479
122 2 2 1 1 239 344 478
123 2 2 1 1 388 351 494
124 2 2 1 1 387 361 495
125 2 2 1 1 311 276 487
126 2 2 1 1 303 102 488
127 2 2 1 1 24 25 357
128 2 2 1 1 41 42 338
129 2 2 1 1 478 343 496
130 2 2 1 1 332 383 481
131 2 2 1 1 304 389 485
132 2 2 1 1 349 106 489
133 2 2 1 1 349 94 350
134 2 2 1 1 358 99 360
135 2 2 1 1 82 308 492
136 2 2 1 1 296 328 493
137 2 2 1 1 24 357 502
138 2 2 1 1 338 42 499
139 2 2 1 1 350 94 351
140 2 2 1 1 360 99 361
141 2 2 1 1 474 88 482
142 2 2 1 1 85 304 483
143 2 2 1 1 306 417 461
144 2 2 1 1 98 339 496
145 2 2 1 1 106 347 475
146 2 2 1 1 276 312 481
147 2 2 1 1 385 303 482
148 2 2 1 1 316 82 492
149 2 2 1 1 328 84 493
150 2 2 1 1 335 295 510
151 2 2 1 1 308 82 487
152 2 2 1 1 328 296 488
153 2 2 1 1 225 242 352
154 2 2 1 1 343 98 496
155 2 2 1 1 295 335 484
156 2 2 1 1 360 361 362
157 2 2 1 1 238 352 353
158 2 2 1 1 238 353 354
159 2 2 1 1 242 350 352
160 2 2 1 1 238 225 352
161 2 2 1 1 350 351 352
162 2 2 1 1 332 333 479
163 2 2 1 1 362 361 363
164 2 2 1 1 354 253 409
165 2 2 1 1 94 349 489
166 2 2 1 1 339 98 490
167 2 2 1 1 99 358 491
168 2 2 1 1 485 103 513
169 2 2 1 1 238 354 409
170 2 2 1 1 304 253 354
171 2 2 1 1 352 351 353
172 2 2 1 1 242 348 350
173 2 2 1 1 348 242 427
174 2 2 1 1 346 348 427
175 2 2 1 1 309 346 427
176 2 2 1 1 309 97 346
177 2 2 1 1 58 97 458
178 2 2 1 1 97 309 458
179 2 2 1 1 74 90 312
180 2 2 1 1 111 109 310
181 2 2 1 1 109 54 310
182 2 2 1 1 278 405 412
183 2 2 1 1 201 431 447
184 2 2 1 1 52 53 81
185 2 2 1 1 71 72 82
186 2 2 1 1 310 89 453
187 2 2 1 1 336 93 340
188 2 2 1 1 405 275 412
189 2 2 1 1 214 279 323
190 2 2 1 1 453 89 455
191 2 2 1 1 44 45 336
192 2 2 1 1 323 279 334
193 2 2 1 1 52 81 314
194 2 2 1 1 71 82 316
195 2 2 1 1 176 313 334
196 2 2 1 1 104 51 314
197 2 2 1 1 103 70 316
198 2 2 1 1 187 317 376
199 2 2 1 1 318 16 327
200 2 2 1 1 45 93 336
201 2 2 1 1 320 318 327
202 2 2 1 1 113 115 426
203 2 2 1 1 81 109 110
204 2 2 1 1 73 74 312
205 2 2 1 1 70 71 316
206 2 2 1 1 51 52 314
207 2 2 1 1 278 307 405
208 2 2 1 1 176 334 394
209 2 2 1 1 33 34 84
210 2 2 1 1 14 15 83
211 2 2 1 1 342 343 344
212 2 2 1 1 315 314 365
213 2 2 1 1 342 98 343
214 2 2 1 1 39 98 342
215 2 2 1 1 154 156 380
216 2 2 1 1 326 245 403
217 2 2 1 1 331 76 364
218 2 2 1 1 43 44 105
219 2 2 1 1 311 73 312
220 2 2 1 1 313 176 380
221 2 2 1 1 317 374 376
222 2 2 1 1 333 331 364
223 2 2 1 1 55 89 310
224 2 2 1 1 62 63 106
225 2 2 1 1 245 324 330
226 2 2 1 1 33 84 328
227 2 2 1 1 230 367 381
228 2 2 1 1 14 83 329
229 2 2 1 1 230 372 423
230 2 2 1 1 275 317 412
231 2 2 1 1 367 326 381
232 2 2 1 1 81 110 365
233 2 2 1 1 446 264 448
234 2 2 1 1 102 32 328
235 2 2 1 1 81 53 109
236 2 2 1 1 334 279 394
237 2 2 1 1 101 13 329
238 2 2 1 1 324 245 326
239 2 2 1 1 288 455 457
240 2 2 1 1 104 314 315
241 2 2 1 1 266 442 443
242 2 2 1 1 366 437 440
243 2 2 1 1 365 113 426
244 2 2 1 1 324 248 330
245 2 2 1 1 381 326 403
246 2 2 1 1 370 252 413
247 2 2 1 1 55 56 89
248 2 2 1 1 348 349 350
249 2 2 1 1 105 44 336
250 2 2 1 1 374 141 376
251 2 2 1 1 148 141 374
252 2 2 1 1 79 107 335
253 2 2 1 1 176 154 380
254 2 2 1 1 13 14 329
255 2 2 1 1 32 33 328
256 2 2 1 1 74 75 90
257 2 2 1 1 97 345 346
258 2 2 1 1 265 323 334
259 2 2 1 1 367 230 423
260 2 2 1 1 53 54 109
261 2 2 1 1 90 331 332
262 2 2 1 1 313 265 334
263 2 2 1 1 355 108 356
264 2 2 1 1 348 347 349
265 2 2 1 1 346 347 348
266 2 2 1 1 90 75 331
267 2 2 1 1 315 365 426
268 2 2 1 1 110 113 365
269 2 2 1 1 22 108 355
270 2 2 1 1 83 322 329
271 2 2 1 1 375 212 410
272 2 2 1 1 54 55 310
273 2 2 1 1 97 59 345
274 2 2 1 1 356 108 357
275 2 2 1 1 355 356 371
276 2 2 1 1 317 187 412
277 2 2 1 1 356 359 371
278 2 2 1 1 431 285 447
279 2 2 1 1 246 369 370
280 2 2 1 1 156 178 380
281 2 2 1 1 341 342 344
282 2 2 1 1 346 345 347
283 2 2 1 1 330 248 382
284 2 2 1 1 36 37 91
285 2 2 1 1 58 59 97
286 2 2 1 1 289 260 422
287 2 2 1 1 356 357 358
288 2 2 1 1 91 37 341
289 2 2 1 1 83 318 319
290 2 2 1 1 341 38 342
291 2 2 1 1 17 92 327
292 2 2 1 1 314 81 365
293 2 2 1 1 246 368 369
294 2 2 1 1 174 201 368
295 2 2 1 1 17 18 92
296 2 2 1 1 38 39 342
297 2 2 1 1 246 370 413
298 2 2 1 1 39 40 98
299 2 2 1 1 337 336 340
300 2 2 1 1 115 214 426
301 2 2 1 1 211 209 411
302 2 2 1 1 251 375 410
303 2 2 1 1 79 80 107
304 2 2 1 1 82 72 311
305 2 2 1 1 57 58 458
306 2 2 1 1 259 229 260
307 2 2 1 1 259 260 289
308 2 2 1 1 83 319 322
309 2 2 1 1 194 193 366
310 2 2 1 1 198 148 374
311 2 2 1 1 256 257 274
312 2 2 1 1 95 78 335
313 2 2 1 1 256 198 257
314 2 2 1 1 274 275 308
315 2 2 1 1 197 235 236
316 2 2 1 1 274 257 275
317 2 2 1 1 171 174 368
318 2 2 1 1 236 261 262
319 2 2 1 1 262 261 290
320 2 2 1 1 359 358 360
321 2 2 1 1 368 201 369
322 2 2 1 1 110 111 112
323 2 2 1 1 161 163 413
324 2 2 1 1 22 23 108
325 2 2 1 1 59 60 345
326 2 2 1 1 209 231 411
327 2 2 1 1 193 215 366
328 2 2 1 1 175 382 401
329 2 2 1 1 236 235 261
330 2 2 1 1 178 197 391
331 2 2 1 1 96 21 355
332 2 2 1 1 230 143 372
333 2 2 1 1 77 95 364
334 2 2 1 1 382 248 401
335 2 2 1 1 143 138 372
336 2 2 1 1 83 15 318
337 2 2 1 1 215 271 273
338 2 2 1 1 437 284 440
339 2 2 1 1 210 225 238
340 2 2 1 1 382 175 422
341 2 2 1 1 131 129 373
342 2 2 1 1 263 262 264
343 2 2 1 1 96 355 371
344 2 2 1 1 78 79 335
345 2 2 1 1 77 78 95
346 2 2 1 1 110 112 113
347 2 2 1 1 75 76 331
348 2 2 1 1 273 297 302
349 2 2 1 1 110 109 111
350 2 2 1 1 140 138 143
351 2 2 1 1 135 131 373
352 2 2 1 1 252 161 413
353 2 2 1 1 215 273 366
354 2 2 1 1 138 135 372
355 2 2 1 1 76 77 364
356 2 2 1 1 210 238 409
357 2 2 1 1 332 331 333
358 2 2 1 1 236 262 263
359 2 2 1 1 144 145 146
360 2 2 1 1 255 198 256
361 2 2 1 1 21 22 355
362 2 2 1 1 16 17 327
363 2 2 1 1 20 21 96
364 2 2 1 1 144 143 145
365 2 2 1 1 231 208 245
366 2 2 1 1 191 194 379
367 2 2 1 1 140 143 144
368 2 2 1 1 169 171 368
369 2 2 1 1 273 271 297
370 2 2 1 1 167 169 246
371 2 2 1 1 72 73 311
372 2 2 1 1 37 38 341
373 2 2 1 1 275 257 317
374 2 2 1 1 231 245 330
375 2 2 1 1 340 93 456
376 2 2 1 1 197 226 235
377 2 2 1 1 287 375 429
378 2 2 1 1 277 253 304
379 2 2 1 1 185 186 205
380 2 2 1 1 231 330 386
381 2 2 1 1 171 173 174
382 2 2 1 1 234 212 375
383 2 2 1 1 185 205 227
384 2 2 1 1 372 135 373
385 2 2 1 1 231 386 411
386 2 2 1 1 356 358 359
387 2 2 1 1 286 234 287
388 2 2 1 1 373 129 393
389 2 2 1 1 212 158 410
390 2 2 1 1 185 227 384
391 2 2 1 1 252 370 420
392 2 2 1 1 287 234 375
393 2 2 1 1 265 264 266
394 2 2 1 1 15 16 318
395 2 2 1 1 144 146 187
396 2 2 1 1 380 178 391
397 2 2 1 1 171 172 173
398 2 2 1 1 174 200 201
399 2 2 1 1 267 217 281
400 2 2 1 1 187 146 384
401 2 2 1 1 263 313 391
402 2 2 1 1 319 320 321
403 2 2 1 1 246 169 368
404 2 2 1 1 139 138 140
405 2 2 1 1 178 196 197
406 2 2 1 1 179 203 222
407 2 2 1 1 146 147 185
408 2 2 1 1 263 264 265
409 2 2 1 1 145 143 230
410 2 2 1 1 227 253 277
411 2 2 1 1 174 173 184
412 2 2 1 1 174 184 200
413 2 2 1 1 227 278 384
414 2 2 1 1 377 190 378
415 2 2 1 1 236 263 391
416 2 2 1 1 146 145 147
417 2 2 1 1 10 11 87
418 2 2 1 1 136 135 138
419 2 2 1 1 149 190 377
420 2 2 1 1 164 162 165
421 2 2 1 1 184 173 390
422 2 2 1 1 145 230 381
423 2 2 1 1 249 184 390
424 2 2 1 1 227 205 253
425 2 2 1 1 200 184 207
426 2 2 1 1 185 147 186
427 2 2 1 1 200 207 258
428 2 2 1 1 152 176 394
429 2 2 1 1 372 373 423
430 2 2 1 1 162 160 392
431 2 2 1 1 267 281 282
432 2 2 1 1 163 167 413
433 2 2 1 1 149 189 190
434 2 2 1 1 169 170 171
435 2 2 1 1 146 185 384
436 2 2 1 1 250 291 303
437 2 2 1 1 188 148 198
438 2 2 1 1 233 212 234
439 2 2 1 1 190 191 379
440 2 2 1 1 278 277 307
441 2 2 1 1 285 234 286
442 2 2 1 1 150 394 402
443 2 2 1 1 179 222 390
444 2 2 1 1 270 284 299
445 2 2 1 1 191 193 194
446 2 2 1 1 144 187 376
447 2 2 1 1 142 149 377
448 2 2 1 1 207 249 250
449 2 2 1 1 394 279 402
450 2 2 1 1 183 158 212
451 2 2 1 1 199 119 248
452 2 2 1 1 250 249 291
453 2 2 1 1 269 219 270
454 2 2 1 1 139 142 397
455 2 2 1 1 12 13 101
456 2 2 1 1 272 295 300
457 2 2 1 1 240 204 241
458 2 2 1 1 313 380 391
459 2 2 1 1 265 266 323
460 2 2 1 1 165 162 392
461 2 2 1 1 160 232 392
462 2 2 1 1 114 175 401
463 2 2 1 1 425 181 430
464 2 2 1 1 159 252 406
465 2 2 1 1 187 384 412
466 2 2 1 1 173 172 179
467 2 2 1 1 190 189 191
468 2 2 1 1 118 116 119
469 2 2 1 1 31 32 102
470 2 2 1 1 31 102 385
471 2 2 1 1 215 223 271
472 2 2 1 1 126 125 393
473 2 2 1 1 152 154 176
474 2 2 1 1 30 31 385
475 2 2 1 1 207 184 249
476 2 2 1 1 164 165 195
477 2 2 1 1 88 30 385
478 2 2 1 1 129 126 393
479 2 2 1 1 29 30 88
480 2 2 1 1 128 126 129
481 2 2 1 1 124 122 125
482 2 2 1 1 167 168 169
483 2 2 1 1 248 119 401
484 2 2 1 1 247 165 392
485 2 2 1 1 227 277 278
486 2 2 1 1 134 131 135
487 2 2 1 1 67 68 85
488 2 2 1 1 218 219 269
489 2 2 1 1 245 208 403
490 2 2 1 1 293 294 296
491 2 2 1 1 270 283 284
492 2 2 1 1 114 112 175
493 2 2 1 1 116 114 401
494 2 2 1 1 173 179 390
495 2 2 1 1 293 241 294
496 2 2 1 1 209 208 231
497 2 2 1 1 197 236 391
498 2 2 1 1 113 112 114
499 2 2 1 1 171 170 172
500 2 2 1 1 140 144 376
501 2 2 1 1 183 212 233
502 2 2 1 1 121 123 150
503 2 2 1 1 120 119 199
504 2 2 1 1 150 151 152
505 2 2 1 1 240 241 293
506 2 2 1 1 233 234 285
507 2 2 1 1 270 219 283
508 2 2 1 1 195 165 213
509 2 2 1 1 128 129 130
510 2 2 1 1 147 145 381
511 2 2 1 1 105 336 337
512 2 2 1 1 378 190 379
513 2 2 1 1 213 165 247
514 2 2 1 1 124 125 126
515 2 2 1 1 229 211 411
516 2 2 1 1 213 247 400
517 2 2 1 1 325 326 367
518 2 2 1 1 28 29 387
519 2 2 1 1 68 69 389
520 2 2 1 1 188 198 255
521 2 2 1 1 219 213 400
522 2 2 1 1 29 88 387
523 2 2 1 1 308 275 405
524 2 2 1 1 150 152 394
525 2 2 1 1 136 139 397
526 2 2 1 1 85 68 389
527 2 2 1 1 142 377 397
528 2 2 1 1 287 429 434
529 2 2 1 1 182 158 183
530 2 2 1 1 150 123 151
531 2 2 1 1 156 177 178
532 2 2 1 1 118 119 120
533 2 2 1 1 281 217 414
534 2 2 1 1 257 198 374
535 2 2 1 1 182 183 204
536 2 2 1 1 218 213 219
537 2 2 1 1 263 265 313
538 2 2 1 1 133 137 159
539 2 2 1 1 125 122 399
540 2 2 1 1 199 248 324
541 2 2 1 1 159 161 252
542 2 2 1 1 127 126 128
543 2 2 1 1 48 49 86
544 2 2 1 1 195 213 218
545 2 2 1 1 241 204 396
546 2 2 1 1 152 151 153
547 2 2 1 1 193 202 215
548 2 2 1 1 160 137 232
549 2 2 1 1 128 130 132
550 2 2 1 1 124 126 127
551 2 2 1 1 121 120 122
552 2 2 1 1 69 70 103
553 2 2 1 1 123 122 124
554 2 2 1 1 115 117 214
555 2 2 1 1 121 150 402
556 2 2 1 1 214 117 279
557 2 2 1 1 157 155 158
558 2 2 1 1 260 229 411
559 2 2 1 1 49 50 395
560 2 2 1 1 149 188 189
561 2 2 1 1 159 137 160
562 2 2 1 1 118 120 121
563 2 2 1 1 50 51 104
564 2 2 1 1 121 122 123
565 2 2 1 1 325 324 326
566 2 2 1 1 141 140 376
567 2 2 1 1 119 116 401
568 2 2 1 1 153 151 251
569 2 2 1 1 161 160 162
570 2 2 1 1 163 162 164
571 2 2 1 1 199 324 325
572 2 2 1 1 133 134 137
573 2 2 1 1 142 148 149
574 2 2 1 1 115 114 116
575 2 2 1 1 393 125 415
576 2 2 1 1 384 278 412
577 2 2 1 1 66 67 388
578 2 2 1 1 130 129 131
579 2 2 1 1 220 204 240
580 2 2 1 1 204 183 396
581 2 2 1 1 134 135 136
582 2 2 1 1 169 168 170
583 2 2 1 1 279 117 402
584 2 2 1 1 157 158 182
585 2 2 1 1 291 249 404
586 2 2 1 1 120 199 399
587 2 2 1 1 67 85 388
588 2 2 1 1 237 217 267
589 2 2 1 1 117 118 402
590 2 2 1 1 69 103 389
591 2 2 1 1 163 166 167
592 2 2 1 1 283 219 400
593 2 2 1 1 183 233 396
594 2 2 1 1 406 252 420
595 2 2 1 1 117 116 118
596 2 2 1 1 256 274 276
597 2 2 1 1 113 114 115
598 2 2 1 1 125 399 415
599 2 2 1 1 118 121 402
600 2 2 1 1 386 382 422
601 2 2 1 1 124 127 398
602 2 2 1 1 195 218 254
603 2 2 1 1 319 318 320
604 2 2 1 1 122 120 399
605 2 2 1 1 130 131 133
606 2 2 1 1 151 123 398
607 2 2 1 1 136 138 139
608 2 2 1 1 123 124 398
609 2 2 1 1 167 166 168
610 2 2 1 1 235 226 243
611 2 2 1 1 199 325 399
612 2 2 1 1 390 222 404
613 2 2 1 1 249 390 404
614 2 2 1 1 179 180 203
615 2 2 1 1 197 196 226
616 2 2 1 1 139 140 141
617 2 2 1 1 232 418 424
618 2 2 1 1 210 211 225
619 2 2 1 1 186 147 403
620 2 2 1 1 206 209 210
621 2 2 1 1 159 160 161
622 2 2 1 1 167 246 413
623 2 2 1 1 191 192 193
624 2 2 1 1 86 49 395
625 2 2 1 1 154 153 155
626 2 2 1 1 253 205 409
627 2 2 1 1 323 266 443
628 2 2 1 1 251 151 398
629 2 2 1 1 225 228 242
630 2 2 1 1 247 428 436
631 2 2 1 1 203 216 224
632 2 2 1 1 317 257 374
633 2 2 1 1 152 153 154
634 2 2 1 1 205 186 206
635 2 2 1 1 208 186 403
636 2 2 1 1 178 177 196
637 2 2 1 1 255 256 383
638 2 2 1 1 50 104 395
639 2 2 1 1 133 131 134
640 2 2 1 1 142 141 148
641 2 2 1 1 115 116 117
642 2 2 1 1 182 204 220
643 2 2 1 1 399 325 415
644 2 2 1 1 132 406 420
645 2 2 1 1 386 260 411
646 2 2 1 1 377 378 424
647 2 2 1 1 139 141 142
648 2 2 1 1 149 148 188
649 2 2 1 1 232 137 418
650 2 2 1 1 325 367 415
651 2 2 1 1 168 166 181
652 2 2 1 1 147 381 403
653 2 2 1 1 158 155 410
654 2 2 1 1 161 162 163
655 2 2 1 1 281 425 430
656 2 2 1 1 133 159 406
657 2 2 1 1 156 155 157
658 2 2 1 1 132 130 406
659 2 2 1 1 237 267 298
660 2 2 1 1 179 172 180
661 2 2 1 1 191 189 192
662 2 2 1 1 130 133 406
663 2 2 1 1 244 229 259
664 2 2 1 1 220 268 280
665 2 2 1 1 26 27 99
666 2 2 1 1 338 337 339
667 2 2 1 1 164 195 407
668 2 2 1 1 216 180 217
669 2 2 1 1 271 223 272
670 2 2 1 1 206 186 208
671 2 2 1 1 163 164 166
672 2 2 1 1 200 258 431
673 2 2 1 1 154 155 156
674 2 2 1 1 155 153 410
675 2 2 1 1 220 240 268
676 2 2 1 1 330 382 386
677 2 2 1 1 153 251 410
678 2 2 1 1 215 202 223
679 2 2 1 1 172 170 414
680 2 2 1 1 237 298 301
681 2 2 1 1 366 273 437
682 2 2 1 1 189 188 408
683 2 2 1 1 370 369 444
684 2 2 1 1 216 217 237
685 2 2 1 1 7 8 100
686 2 2 1 1 181 166 407
687 2 2 1 1 202 192 221
688 2 2 1 1 157 182 416
689 2 2 1 1 256 276 383
690 2 2 1 1 203 180 216
691 2 2 1 1 137 134 418
692 2 2 1 1 418 397 424
693 2 2 1 1 136 397 418
694 2 2 1 1 280 268 305
695 2 2 1 1 156 157 177
696 2 2 1 1 240 293 417
697 2 2 1 1 247 392 428
698 2 2 1 1 220 280 416
699 2 2 1 1 195 254 407
700 2 2 1 1 206 210 409
701 2 2 1 1 393 415 423
702 2 2 1 1 206 208 209
703 2 2 1 1 166 164 407
704 2 2 1 1 205 206 409
705 2 2 1 1 193 192 202
706 2 2 1 1 226 196 239
707 2 2 1 1 444 369 447
708 2 2 1 1 134 136 418
709 2 2 1 1 210 209 211
710 2 2 1 1 192 189 408
711 2 2 1 1 188 255 408
712 2 2 1 1 180 172 414
713 2 2 1 1 281 414 425
714 2 2 1 1 228 211 229
715 2 2 1 1 182 220 416
716 2 2 1 1 375 251 429
717 2 2 1 1 221 192 408
718 2 2 1 1 415 367 423
719 2 2 1 1 45 46 93
720 2 2 1 1 175 112 435
721 2 2 1 1 217 180 414
722 2 2 1 1 168 181 425
723 2 2 1 1 268 240 417
724 2 2 1 1 224 216 419
725 2 2 1 1 128 132 434
726 2 2 1 1 225 211 228
727 2 2 1 1 228 229 244
728 2 2 1 1 272 292 295
729 2 2 1 1 373 393 423
730 2 2 1 1 177 157 416
731 2 2 1 1 289 422 435
732 2 2 1 1 64 65 94
733 2 2 1 1 428 378 436
734 2 2 1 1 170 168 425
735 2 2 1 1 369 201 447
736 2 2 1 1 244 288 309
737 2 2 1 1 272 223 292
738 2 2 1 1 237 301 419
739 2 2 1 1 397 377 424
740 2 2 1 1 305 268 306
741 2 2 1 1 442 315 443
742 2 2 1 1 414 170 425
743 2 2 1 1 251 398 429
744 2 2 1 1 282 281 430
745 2 2 1 1 201 200 431
746 2 2 1 1 244 259 288
747 2 2 1 1 216 237 419
748 2 2 1 1 398 127 429
749 2 2 1 1 392 232 428
750 2 2 1 1 260 386 422
751 2 2 1 1 434 132 441
752 2 2 1 1 105 337 338
753 2 2 1 1 422 175 435
754 2 2 1 1 202 221 421
755 2 2 1 1 431 258 445
756 2 2 1 1 424 378 428
757 2 2 1 1 239 196 432
758 2 2 1 1 429 127 434
759 2 2 1 1 416 280 432
760 2 2 1 1 242 228 427
761 2 2 1 1 306 268 417
762 2 2 1 1 177 416 432
763 2 2 1 1 408 255 433
764 2 2 1 1 86 446 448
765 2 2 1 1 127 128 434
766 2 2 1 1 223 202 421
767 2 2 1 1 250 303 451
768 2 2 1 1 196 177 432
769 2 2 1 1 194 366 440
770 2 2 1 1 294 449 450
771 2 2 1 1 244 309 427
772 2 2 1 1 232 424 428
773 2 2 1 1 273 302 437
774 2 2 1 1 239 432 438
775 2 2 1 1 286 287 441
776 2 2 1 1 255 383 433
777 2 2 1 1 292 223 421
778 2 2 1 1 400 247 436
779 2 2 1 1 112 111 435
780 2 2 1 1 378 379 436
781 2 2 1 1 379 194 439
782 2 2 1 1 432 280 438
783 2 2 1 1 214 323 443
784 2 2 1 1 221 408 433
785 2 2 1 1 400 436 439
786 2 2 1 1 228 244 427
787 2 2 1 1 287 434 441
788 2 2 1 1 436 379 439
789 2 2 1 1 283 400 439
790 2 2 1 1 280 305 438
791 2 2 1 1 439 194 440
792 2 2 1 1 445 258 449
793 2 2 1 1 283 439 440
794 2 2 1 1 284 283 440
795 2 2 1 1 132 420 441
796 2 2 1 1 264 262 448
797 2 2 1 1 233 285 445
798 2 2 1 1 104 315 442
799 2 2 1 1 294 241 449
800 2 2 1 1 285 431 445
801 2 2 1 1 207 250 450
802 2 2 1 1 455 89 457
803 2 2 1 1 426 214 443
804 2 2 1 1 48 86 452
805 2 2 1 1 395 104 442
806 2 2 1 1 286 444 447
807 2 2 1 1 449 258 450
808 2 2 1 1 315 426 443
809 2 2 1 1 286 441 444
810 2 2 1 1 395 442 446
811 2 2 1 1 266 264 446
812 2 2 1 1 396 233 445
813 2 2 1 1 420 370 444
814 2 2 1 1 285 286 447
815 2 2 1 1 450 250 451
816 2 2 1 1 86 395 446
817 2 2 1 1 442 266 446
818 2 2 1 1 93 46 454
819 2 2 1 1 441 420 444
820 2 2 1 1 340 456 459
821 2 2 1 1 396 445 449
822 2 2 1 1 56 57 457
823 2 2 1 1 262 290 448
824 2 2 1 1 241 396 449
825 2 2 1 1 288 259 455
826 2 2 1 1 258 207 450
827 2 2 1 1 459 243 460
828 2 2 1 1 296 294 451
829 2 2 1 1 111 310 453
830 2 2 1 1 86 448 452
831 2 2 1 1 47 48 452
832 2 2 1 1 235 243 459
833 2 2 1 1 309 288 458
834 2 2 1 1 47 452 454
835 2 2 1 1 294 450 451
836 2 2 1 1 452 290 454
837 2 2 1 1 46 47 454
838 2 2 1 1 289 453 455
839 2 2 1 1 339 337 460
840 2 2 1 1 93 454 456
841 2 2 1 1 448 290 452
842 2 2 1 1 259 289 455
843 2 2 1 1 435 111 453
844 2 2 1 1 89 56 457
845 2 2 1 1 290 261 456
846 2 2 1 1 289 435 453
847 2 2 1 1 457 57 458
848 2 2 1 1 456 261 459
849 2 2 1 1 288 457 458
850 2 2 1 1 454 290 456
851 2 2 1 1 340 459 460
852 2 2 1 1 261 235 459
853 2 2 1 1 337 340 460
854 2 2 1 1 353 388 483
855 2 2 1 1 480 305 512
856 2 2 1 1 307 485 513
857 2 2 1 1 344 343 478
858 2 2 1 1 34 35 461
859 2 2 1 1 329 322 464
860 2 2 1 1 92 18 463
861 2 2 1 1 20 96 462
862 2 2 1 1 319 321 465
863 2 2 1 1 298 267 466
864 2 2 1 1 87 11 468
865 2 2 1 1 12 101 468
866 2 2 1 1 407 254 467
867 2 2 1 1 437 302 469
868 2 2 1 1 430 181 467
869 2 2 1 1 10 87 470
870 2 2 1 1 297 271 472
871 2 2 1 1 100 8 471
872 2 2 1 1 272 300 472
873 2 2 1 1 299 284 469
874 2 2 1 1 7 100 473
875 2 2 1 1 508 419 509
876 2 2 1 1 507 224 508
877 2 2 1 1 224 419 508
878 2 2 1 1 419 301 509
879 2 2 1 1 282 430 506
880 2 2 1 1 503 282 506
881 2 2 1 1 347 345 475
882 2 2 1 1 60 61 475
883 2 2 1 1 5 6 476
884 2 2 1 1 84 34 461
885 2 2 1 1 19 20 462
886 2 2 1 1 19 462 463
887 2 2 1 1 101 329 464
888 2 2 1 1 18 19 463
889 2 2 1 1 322 319 465
890 2 2 1 1 267 282 466
891 2 2 1 1 181 407 467
892 2 2 1 1 11 12 468
893 2 2 1 1 284 437 469
894 2 2 1 1 9 10 470
895 2 2 1 1 9 470 471
896 2 2 1 1 8 9 471
897 2 2 1 1 271 272 472
898 2 2 1 1 6 7 473
899 2 2 1 1 364 95 477
900 2 2 1 1 101 464 505
901 2 2 1 1 322 465 504
902 2 2 1 1 466 282 503
903 2 2 1 1 91 480 512
904 2 2 1 1 243 226 478
905 2 2 1 1 362 363 497
906 2 2 1 1 421 221 479
907 2 2 1 1 362 497 498
908 2 2 1 1 95 335 510
909 2 2 1 1 360 362 507
910 2 2 1 1 461 35 486
911 2 2 1 1 351 94 494
912 2 2 1 1 361 99 495
913 2 2 1 1 341 344 480
914 2 2 1 1 438 305 480
915 2 2 1 1 291 404 474
916 2 2 1 1 90 332 481
917 2 2 1 1 82 311 487
918 2 2 1 1 102 328 488
919 2 2 1 1 107 476 484
920 2 2 1 1 345 60 475
921 2 2 1 1 333 364 477
922 2 2 1 1 277 304 485
923 2 2 1 1 306 461 486
924 2 2 1 1 36 91 486
925 2 2 1 1 462 96 509
926 2 2 1 1 276 274 487
927 2 2 1 1 451 303 488
928 2 2 1 1 106 63 489
929 2 2 1 1 98 40 490
930 2 2 1 1 64 94 489
931 2 2 1 1 26 99 491
932 2 2 1 1 6 473 476
933 2 2 1 1 405 307 492
934 2 2 1 1 417 293 493
935 2 2 1 1 66 388 494
936 2 2 1 1 94 65 494
937 2 2 1 1 28 387 495
938 2 2 1 1 99 27 495
939 2 2 1 1 389 103 485
940 2 2 1 1 304 354 483
941 2 2 1 1 460 243 496
942 2 2 1 1 301 462 509
943 2 2 1 1 203 224 498
944 2 2 1 1 80 1 500
945 2 2 1 1 1 5 500
946 2 2 1 1 23 2 502
947 2 2 1 1 2 24 502
948 2 2 1 1 357 108 502
949 2 2 1 1 3 43 499
950 2 2 1 1 42 3 499
951 2 2 1 1 61 4 501
952 2 2 1 1 4 62 501
953 2 2 1 1 105 338 499
954 2 2 1 1 327 92 503
955 2 2 1 1 269 270 505
956 2 2 1 1 254 218 504
957 2 2 1 1 335 107 484
958 2 2 1 1 303 291 482
959 2 2 1 1 383 276 481
960 2 2 1 1 226 239 478
961 2 2 1 1 92 466 503
962 2 2 1 1 464 269 505
963 2 2 1 1 465 254 504
964 2 2 1 1 221 433 479
965 2 2 1 1 388 85 483
966 2 2 1 1 474 404 497
967 2 2 1 1 363 474 497
968 2 2 1 1 91 341 480
969 2 2 1 1 312 90 481
970 2 2 1 1 88 385 482
971 2 2 1 1 291 474 482
972 2 2 1 1 354 353 483
973 2 2 1 1 292 421 511
974 2 2 1 1 41 338 490
975 2 2 1 1 357 25 491
976 2 2 1 1 300 295 484
977 2 2 1 1 307 277 485
978 2 2 1 1 35 36 486
979 2 2 1 1 295 292 510
980 2 2 1 1 274 308 487
981 2 2 1 1 296 451 488
982 2 2 1 1 477 292 511
983 2 2 1 1 63 64 489
984 2 2 1 1 25 26 491
985 2 2 1 1 338 339 490
986 2 2 1 1 40 41 490
987 2 2 1 1 358 357 491
988 2 2 1 1 308 405 492
989 2 2 1 1 293 296 493
990 2 2 1 1 65 66 494
991 2 2 1 1 27 28 495
992 2 2 1 1 421 479 511
993 2 2 1 1 339 460 496
994 2 2 1 1 292 477 510
995 2 2 1 1 475 61 501
996 2 2 1 1 5 476 500
997 2 2 1 1 492 307 513
998 2 2 1 1 404 222 497
999 2 2 1 1 497 222 498
1000 2 2 1 1 222 203 498
1001 2 2 1 1 107 80 500
1002 2 2 1 1 108 23 502
1003 2 2 1 1 43 105 499
1004 2 2 1 1 62 106 501
1005 2 2 1 1 320 327 503
1006 2 2 1 1 218 269 504
1007 2 2 1 1 270 299 505
1008 2 2 1 1 486 91 512
1009 2 2 1 1 320 503 506
1010 2 2 1 1 321 320 506
1011 2 2 1 1 359 360 507
1012 2 2 1 1 371 359 508
1013 2 2 1 1 371 508 509
1014 2 2 1 1 359 507 508
1015 2 2 1 1 96 371 509
1016 2 2 1 1 477 95 510
1017 2 2 1 1 305 306 512
1018 2 2 1 1 103 316 513
1019 2 2 1 1 106 475 501
1020 2 2 1 1 476 107 500
1021 2 2 1 1 479 333 511
1022 2 2 1 1 333 477 511
1023 2 2 1 1 306 486 512
1024 2 2 1 1 316 492 513
$EndElements
